<?xml version="1.0" encoding="iso-8859-1"?>
<!-- Uploaded to: SVG Repo, www.svgrepo.com, Generator: SVG Repo Mixer Tools -->
<svg height="800px" width="800px" version="1.1" id="Layer_1"
	xmlns="http://www.w3.org/2000/svg"
	xmlns:xlink="http://www.w3.org/1999/xlink" viewBox="0 0 297 297" xml:space="preserve">
	<g>
		<g>
			<g>
				<circle style="fill:#BFF796;" cx="148.5" cy="148.5" r="148.5"/>
			</g>
		</g>
		<path style="fill:#A3D879;" d="M295.839,129.863l-66.504-66.504L68.126,225.683l70.822,71.003c3.159,0.201,6.342,0.314,9.552,0.314
		c82.014,0,148.5-66.486,148.5-148.5C297,142.188,296.603,135.968,295.839,129.863z"/>
		<g>
			<path style="fill:#5E345E;" d="M191.999,146.194c5.443-9.644,17.986-17.986,22.596-22.596c12.48-12.479,12.48-32.713,0-45.192
			c-12.48-12.48-32.713-12.48-45.193-0.001c-4.61,4.61-12.952,17.153-22.596,22.596c-25.477,14.379-60.855,15.66-79.088,33.893
			c-24.959,24.959-24.959,65.425,0,90.384s65.427,24.96,90.386,0.001C176.338,207.047,177.619,171.671,191.999,146.194z"/>
		</g>
		<g>
			<path style="fill:#4B274C;" d="M214.596,78.406c-12.48-12.479-32.713-12.48-45.193-0.001
			c-4.472,4.472-12.459,16.387-21.736,22.068v133.253c3.694-2.398,7.198-5.208,10.438-8.447
			c18.233-18.233,19.515-53.609,33.895-79.086c5.443-9.644,17.986-17.986,22.596-22.596
			C227.075,111.119,227.075,90.886,214.596,78.406z"/>
		</g>
		<g>
			<path style="fill:#27AE60;" d="M218.901,83.002l11.729-11.728c1.828-1.828,1.828-4.791,0-6.619l-2.282-2.282
			c-1.828-1.828-4.792-1.828-6.619,0l-11.824,11.823c-16.372-13.132-29.204-7.088-29.204-7.088l11.298,11.298v22.596h22.596
			l11.298,11.298C229.626,98.767,224.383,89.44,218.901,83.002z"/>
		</g>
	</g>
</svg>