<?xml version="1.0" encoding="iso-8859-1"?>
<!-- Uploaded to: SVG Repo, www.svgrepo.com, Generator: SVG Repo Mixer Tools -->
<svg height="800px" width="800px" version="1.1" id="Layer_1" xmlns="http://www.w3.org/2000/svg" xmlns:xlink="http://www.w3.org/1999/xlink" 
	 viewBox="0 0 297 297" xml:space="preserve">
<g>
	<g>
		<g>
			<circle style="fill:#5E4534;" cx="148.5" cy="148.5" r="148.5"/>
		</g>
	</g>
	<path style="fill:#503B2C;" d="M295.438,126.951l-54.319-54.319L77.373,241.741l54.286,54.303
		c5.529,0.624,11.146,0.956,16.841,0.956c82.014,0,148.5-66.486,148.5-148.5C297,141.18,296.461,133.987,295.438,126.951z"/>
	<g>
		<path style="fill:#F0C082;" d="M214.5,66h-132c-18.225,0-33,14.775-33,33l0,0c0,15.377,10.517,28.297,24.75,31.96v93.415
			c0,10.562,8.562,19.125,19.125,19.125h110.25c10.562,0,19.125-8.563,19.125-19.125V130.96c14.233-3.663,24.75-16.583,24.75-31.96
			l0,0C247.5,80.775,232.725,66,214.5,66z"/>
		<path style="fill:#B85627;" d="M203.625,248H93.375c-13.027,0-23.625-10.598-23.625-23.625v-90.098
			C55.016,128.969,45,114.931,45,99c0-20.678,16.822-37.5,37.5-37.5h132c20.678,0,37.5,16.822,37.5,37.5
			c0,15.931-10.016,29.969-24.75,35.277v90.098C227.25,237.402,216.652,248,203.625,248z M82.5,70.5C66.785,70.5,54,83.285,54,99
			c0,13.014,8.788,24.363,21.371,27.602l3.379,0.87v96.903c0,8.064,6.561,14.625,14.625,14.625h110.25
			c8.064,0,14.625-6.561,14.625-14.625v-96.903l3.379-0.87C234.212,123.363,243,112.014,243,99c0-15.715-12.785-28.5-28.5-28.5H82.5
			z"/>
	</g>
	<g>
		<path style="fill:#D69D5F;" d="M214.5,66h-66.333v177.5h55.458c10.562,0,19.125-8.563,19.125-19.125V130.96
			c14.233-3.663,24.75-16.583,24.75-31.96C247.5,80.775,232.725,66,214.5,66z"/>
		<path style="fill:#A54520;" d="M214.5,61.5h-66.333v9H214.5c15.715,0,28.5,12.785,28.5,28.5c0,13.014-8.788,24.363-21.371,27.602
			l-3.379,0.87v96.903c0,8.064-6.561,14.625-14.625,14.625h-55.458v9h55.458c13.027,0,23.625-10.598,23.625-23.625v-90.098
			C241.984,128.969,252,114.931,252,99C252,78.322,235.178,61.5,214.5,61.5z"/>
	</g>
	<g>
		<circle style="fill:#D88268;" cx="104.5" cy="93.5" r="4"/>
	</g>
	<g>
		<circle style="fill:#D88268;" cx="103" cy="177.5" r="4"/>
	</g>
	<g>
		<circle style="fill:#C46F5C;" cx="188" cy="194" r="4"/>
	</g>
	<g>
		<circle style="fill:#D88268;" cx="136" cy="111.5" r="4"/>
	</g>
	<g>
		<circle style="fill:#C46F5C;" cx="155" cy="185.5" r="4"/>
	</g>
	<g>
		<circle style="fill:#C46F5C;" cx="163.5" cy="218.5" r="4"/>
	</g>
	<g>
		<circle style="fill:#D88268;" cx="103" cy="128" r="4"/>
	</g>
	<g>
		<circle style="fill:#C46F5C;" cx="196.5" cy="136" r="4"/>
	</g>
	<g>
		<circle style="fill:#D88268;" cx="95" cy="218.5" r="4"/>
	</g>
	<g>
		<circle style="fill:#C46F5C;" cx="155" cy="95" r="4"/>
	</g>
	<g>
		<circle style="fill:#C46F5C;" cx="204.5" cy="86.5" r="4"/>
	</g>
	<g>
		<circle style="fill:#C46F5C;" cx="180" cy="111.5" r="6"/>
	</g>
	<g>
		<circle style="fill:#D88268;" cx="126" cy="159" r="6"/>
	</g>
	<g>
		<circle style="fill:#D88268;" cx="121.5" cy="220.5" r="6"/>
	</g>
	<g>
		<circle style="fill:#C46F5C;" cx="157" cy="154.5" r="6"/>
	</g>
</g>
</svg>